{"accessors":[{"bufferView":1,"componentType":5126,"count":48,"max":[148.25779724121094,51.801902770996094,4.1072998046875],"min":[86.006591796875,25.948200225830078,0],"type":"VEC3"},{"bufferView":1,"byteOffset":576,"componentType":5126,"count":48,"max":[1,1,1],"min":[-1,-1,-1],"type":"VEC3"},{"bufferView":2,"componentType":5126,"count":48,"max":[1,1,0,1],"min":[-1,-1,0,1],"type":"VEC4"},{"bufferView":0,"componentType":5125,"count":72,"max":[47],"min":[0],"type":"SCALAR"},{"bufferView":1,"byteOffset":1152,"componentType":5126,"count":344,"max":[148.31259155273438,69.0946044921875,167.56259155273438],"min":[82.85749816894531,7.130300521850586,54.94020080566406],"type":"VEC3"},{"bufferView":1,"byteOffset":5280,"componentType":5126,"count":344,"max":[1,1,1],"min":[-1,-1,-1],"type":"VEC3"},{"bufferView":2,"byteOffset":768,"componentType":5126,"count":344,"max":[1,1,0,1],"min":[-1,-1,0,-1],"type":"VEC4"},{"bufferView":0,"byteOffset":288,"componentType":5125,"count":1728,"max":[343],"min":[0],"type":"SCALAR"},{"bufferView":1,"byteOffset":9408,"componentType":5126,"count":404,"max":[201.33509826660156,93.24610137939453,154.08700561523438],"min":[15.12969970703125,21.903600692749023,110.69770050048828],"type":"VEC3"},{"bufferView":1,"byteOffset":14256,"componentType":5126,"count":404,"max":[0.9250333309173584,0.9271984696388245,0.8523814082145691],"min":[-0.877051055431366,-0.9307098984718323,-0.9912513494491577],"type":"VEC3"},{"bufferView":2,"byteOffset":6272,"componentType":5126,"count":404,"max":[0.7365074753761292,0.9989444613456726,0.987000584602356,1],"min":[-0.7348788976669312,-0.998813271522522,-0.9906768202781677,1],"type":"VEC4"},{"bufferView":0,"byteOffset":7200,"componentType":5125,"count":1728,"max":[403],"min":[0],"type":"SCALAR"},{"bufferView":1,"byteOffset":19104,"componentType":5126,"count":362,"max":[156.84849548339844,43.76640319824219,153.5928955078125],"min":[73.29660034179688,33.300899505615234,143.43618774414062],"type":"VEC3"},{"bufferView":1,"byteOffset":23448,"componentType":5126,"count":362,"max":[0.9984670281410217,0.9986178874969482,0.986384928226471],"min":[-0.9984670281410217,-0.9986178874969482,-0.986384928226471],"type":"VEC3"},{"bufferView":2,"byteOffset":12736,"componentType":5126,"count":362,"max":[0.9897255897521973,0.9947310090065002,0.5499522686004639,1],"min":[-0.9897240996360779,-0.9966179132461548,-0.534363865852356,1],"type":"VEC4"},{"bufferView":0,"byteOffset":14112,"componentType":5125,"count":1920,"max":[361],"min":[0],"type":"SCALAR"},{"bufferView":1,"byteOffset":27792,"componentType":5126,"count":308,"max":[189.277587890625,78.4572982788086,154.19879150390625],"min":[32.52379608154297,30.54490089416504,118.97209930419922],"type":"VEC3"},{"bufferView":1,"byteOffset":31488,"componentType":5126,"count":308,"max":[0.872581422328949,0.988218367099762,0.9748197197914124],"min":[-0.872581422328949,-0.988218367099762,-0.9748197197914124],"type":"VEC3"},{"bufferView":2,"byteOffset":18528,"componentType":5126,"count":308,"max":[0.7323762774467468,0.9997389912605286,0.9822834134101868,1],"min":[-0.732376754283905,-0.9997391104698181,-0.9822813868522644,1],"type":"VEC4"},{"bufferView":0,"byteOffset":21792,"componentType":5125,"count":1296,"max":[307],"min":[0],"type":"SCALAR"},{"bufferView":1,"byteOffset":35184,"componentType":5126,"count":1118,"max":[213.29150390625,105.27320098876953,145.43548583984375],"min":[0,26.032901763916016,101.82620239257812],"type":"VEC3"},{"bufferView":1,"byteOffset":48600,"componentType":5126,"count":1118,"max":[0.9982186555862427,0.9969028830528259,0.999612033367157],"min":[-0.9982186555862427,-0.9969028830528259,-0.999612033367157],"type":"VEC3"},{"bufferView":2,"byteOffset":23456,"componentType":5126,"count":1118,"max":[0.9907087683677673,0.9955559372901917,0.5624024868011475,1],"min":[-0.9894125461578369,-0.9949200749397278,-0.53463214635849,1],"type":"VEC4"},{"bufferView":0,"byteOffset":26976,"componentType":5125,"count":5760,"max":[1117],"min":[0],"type":"SCALAR"},{"bufferView":1,"byteOffset":62016,"componentType":5126,"count":434,"max":[134.8730010986328,55.73570251464844,133.1964111328125],"min":[98.28269958496094,20.366201400756836,89.2781982421875],"type":"VEC3"},{"bufferView":1,"byteOffset":67224,"componentType":5126,"count":434,"max":[1,1,1],"min":[-1,-1,-1],"type":"VEC3"},{"bufferView":2,"byteOffset":41344,"componentType":5126,"count":434,"max":[0.9448021054267883,0.9447962045669556,1,1],"min":[-0.9448021054267883,-0.9447962045669556,0,-1],"type":"VEC4"},{"bufferView":0,"byteOffset":50016,"componentType":5125,"count":2208,"max":[433],"min":[0],"type":"SCALAR"},{"bufferView":1,"byteOffset":72432,"componentType":5126,"count":1209,"max":[154.78099060058594,77.45909881591797,245.56118774414062],"min":[77.3218994140625,0,3.451199769973755],"type":"VEC3"},{"bufferView":1,"byteOffset":86940,"componentType":5126,"count":1209,"max":[1,1,1],"min":[-1,-1,-1],"type":"VEC3"},{"bufferView":2,"byteOffset":48288,"componentType":5126,"count":1209,"max":[1,1,1,1],"min":[-1,-1,-0.9997333288192749,1],"type":"VEC4"},{"bufferView":0,"byteOffset":58848,"componentType":5125,"count":6336,"max":[1208],"min":[0],"type":"SCALAR"},{"bufferView":1,"byteOffset":101448,"componentType":5126,"count":1828,"max":[141.25790405273438,43.08879852294922,55.19409942626953],"min":[91.2720947265625,31.644901275634766,29.412599563598633],"type":"VEC3"},{"bufferView":1,"byteOffset":123384,"componentType":5126,"count":1828,"max":[1,0.9848158359527588,1],"min":[-1,-0.9848158359527588,-1],"type":"VEC3"},{"bufferView":2,"byteOffset":67632,"componentType":5126,"count":1828,"max":[0.5254158973693848,0.5184434056282043,1,1],"min":[-0.5254157781600952,-0.5184406042098999,0,-1],"type":"VEC4"},{"bufferView":0,"byteOffset":84192,"componentType":5125,"count":9936,"max":[1827],"min":[0],"type":"SCALAR"},{"bufferView":1,"byteOffset":145320,"componentType":5126,"count":308,"max":[142.5106964111328,44.47990036010742,29.77989959716797],"min":[90.03569793701172,30.5846004486084,3.4671998023986816],"type":"VEC3"},{"bufferView":1,"byteOffset":149016,"componentType":5126,"count":308,"max":[1,0.9848158359527588,1],"min":[-1,-0.9848158359527588,-1],"type":"VEC3"},{"bufferView":2,"byteOffset":96880,"componentType":5126,"count":308,"max":[0.9848158359527588,1,5.503933376234619e-21,1],"min":[-0.9848158359527588,-1,-2.7519250867486118e-21,1],"type":"VEC4"},{"bufferView":0,"byteOffset":123936,"componentType":5125,"count":1296,"max":[307],"min":[0],"type":"SCALAR"}],"asset":{"extras":{"author":"Victor Gonzalez (https://sketchfab.com/vjgonzal)","license":"CC-BY-4.0 (http://creativecommons.org/licenses/by/4.0/)","source":"https://sketchfab.com/models/8737e5f54f454a01a15fe54c0e4843f3","title":"Robot Victor Gonzalez"},"generator":"Sketchfab-3.18.7","version":"2.0"},"bufferViews":[{"buffer":0,"byteLength":129120,"byteOffset":0,"name":"floatBufferViews","target":34963},{"buffer":0,"byteLength":152712,"byteOffset":129120,"byteStride":12,"name":"floatBufferViews","target":34962},{"buffer":0,"byteLength":101808,"byteOffset":281832,"byteStride":16,"name":"floatBufferViews","target":34962}],"buffers":[{"byteLength":383640,"uri":"data:application/octet-stream;base64,"}],"materials":[{"doubleSided":true,"emissiveFactor":[0,0,0],"name":"wire_008110135","pbrMetallicRoughness":{"baseColorFactor":[0.0314,0.4314,0.5294,1],"metallicFactor":0,"roughnessFactor":0.6}},{"doubleSided":true,"emissiveFactor":[0,0,0],"name":"wire_057008136","pbrMetallicRoughness":{"baseColorFactor":[0.2235,0.0314,0.5333,1],"metallicFactor":0,"roughnessFactor":0.6}},{"doubleSided":true,"emissiveFactor":[0,0,0],"name":"wire_088177027","pbrMetallicRoughness":{"baseColorFactor":[0.3451,0.6941,0.1059,1],"metallicFactor":0,"roughnessFactor":0.6}},{"doubleSided":true,"emissiveFactor":[0,0,0],"name":"wire_135110008","pbrMetallicRoughness":{"baseColorFactor":[0.5294,0.4314,0.0314,1],"metallicFactor":0,"roughnessFactor":0.6}},{"doubleSided":true,"emissiveFactor":[0,0,0],"name":"wire_140088225","pbrMetallicRoughness":{"baseColorFactor":[0.549,0.3451,0.8824,1],"metallicFactor":0,"roughnessFactor":0.6}},{"doubleSided":true,"emissiveFactor":[0,0,0],"name":"wire_145028177","pbrMetallicRoughness":{"baseColorFactor":[0.5686,0.1098,0.6941,1],"metallicFactor":0,"roughnessFactor":0.6}},{"doubleSided":true,"emissiveFactor":[0,0,0],"name":"wire_154154229","pbrMetallicRoughness":{"baseColorFactor":[0.6039,0.6039,0.898,1],"metallicFactor":0,"roughnessFactor":0.6}},{"doubleSided":true,"emissiveFactor":[0,0,0],"name":"wire_166229229","pbrMetallicRoughness":{"baseColorFactor":[0.651,0.898,0.898,1],"metallicFactor":0,"roughnessFactor":0.6}},{"doubleSided":true,"emissiveFactor":[0,0,0],"name":"wire_225198087","pbrMetallicRoughness":{"baseColorFactor":[0.8824,0.7765,0.3412,1],"metallicFactor":0,"roughnessFactor":0.6}},{"doubleSided":true,"emissiveFactor":[0,0,0],"name":"wire_228153184","pbrMetallicRoughness":{"baseColorFactor":[0.8941,0.6,0.7216,1],"metallicFactor":0,"roughnessFactor":0.6}}],"meshes":[{"primitives":[{"attributes":{"NORMAL":1,"POSITION":0,"TANGENT":2},"indices":3,"material":0,"mode":4}]},{"primitives":[{"attributes":{"NORMAL":5,"POSITION":4,"TANGENT":6},"indices":7,"material":1,"mode":4}]},{"primitives":[{"attributes":{"NORMAL":9,"POSITION":8,"TANGENT":10},"indices":11,"material":2,"mode":4}]},{"primitives":[{"attributes":{"NORMAL":13,"POSITION":12,"TANGENT":14},"indices":15,"material":3,"mode":4}]},{"primitives":[{"attributes":{"NORMAL":17,"POSITION":16,"TANGENT":18},"indices":19,"material":4,"mode":4}]},{"primitives":[{"attributes":{"NORMAL":21,"POSITION":20,"TANGENT":22},"indices":23,"material":5,"mode":4}]},{"primitives":[{"attributes":{"NORMAL":25,"POSITION":24,"TANGENT":26},"indices":27,"material":6,"mode":4}]},{"primitives":[{"attributes":{"NORMAL":29,"POSITION":28,"TANGENT":30},"indices":31,"material":7,"mode":4}]},{"primitives":[{"attributes":{"NORMAL":33,"POSITION":32,"TANGENT":34},"indices":35,"material":8,"mode":4}]},{"primitives":[{"attributes":{"NORMAL":37,"POSITION":36,"TANGENT":38},"indices":39,"material":9,"mode":4}]}],"nodes":[{"children":[1],"name":"RootNode (gltf orientation matrix)","rotation":[-0.7071067811865475,0,0,0.7071067811865476]},{"children":[2],"name":"RootNode (model correction matrix)"},{"children":[3],"matrix":[1,0,0,0,0,1,0,0,0,0,1,0,-123.02749633789062,-18.42970085144043,-4.166999816894531,1],"name":"Robot.obj.cleaner.gles"},{"children":[4,5,6,7,8,9,10,11,12,13],"name":""},{"mesh":0,"name":""},{"mesh":1,"name":""},{"mesh":2,"name":""},{"mesh":3,"name":""},{"mesh":4,"name":""},{"mesh":5,"name":""},{"mesh":6,"name":""},{"mesh":7,"name":""},{"mesh":8,"name":""},{"mesh":9,"name":""}],"scene":0,"scenes":[{"name":"OSG_Scene","nodes":[0]}]}